<svg xmlns="http://www.w3.org/2000/svg" xmlns:xlink="http://www.w3.org/1999/xlink" width="300" zoomAndPan="magnify" viewBox="0 0 224.87999 58.499998" height="78" preserveAspectRatio="xMidYMid meet" version="1.0"><defs><g/></defs><g fill="#d90429" fill-opacity="1"><g transform="translate(5.96804, 39.178039)"><g><path d="M 2.171875 0 L 2.171875 -18.546875 L 8.5625 -18.546875 L 8.5625 -16.59375 L 8.640625 -16.59375 C 10.296875 -18.25 12.066406 -19.078125 13.953125 -19.078125 C 14.867188 -19.078125 15.773438 -18.957031 16.671875 -18.71875 C 17.578125 -18.476562 18.445312 -18.101562 19.28125 -17.59375 C 20.113281 -17.09375 20.785156 -16.378906 21.296875 -15.453125 C 21.816406 -14.523438 22.078125 -13.445312 22.078125 -12.21875 L 22.078125 0 L 15.6875 0 L 15.6875 -10.484375 C 15.6875 -11.441406 15.378906 -12.28125 14.765625 -13 C 14.148438 -13.726562 13.347656 -14.09375 12.359375 -14.09375 C 11.398438 -14.09375 10.523438 -13.71875 9.734375 -12.96875 C 8.953125 -12.226562 8.5625 -11.398438 8.5625 -10.484375 L 8.5625 0 Z M 2.171875 0 "/></g></g></g><g fill="#d90429" fill-opacity="1"><g transform="translate(26.453469, 39.178039)"><g><path d="M 20.921875 -8.390625 L 7.484375 -8.390625 C 7.484375 -7.085938 7.90625 -6.117188 8.75 -5.484375 C 9.59375 -4.859375 10.507812 -4.546875 11.5 -4.546875 C 12.53125 -4.546875 13.347656 -4.6875 13.953125 -4.96875 C 14.554688 -5.25 15.242188 -5.796875 16.015625 -6.609375 L 20.640625 -4.296875 C 18.710938 -1.066406 15.503906 0.546875 11.015625 0.546875 C 8.222656 0.546875 5.828125 -0.410156 3.828125 -2.328125 C 1.828125 -4.242188 0.828125 -6.550781 0.828125 -9.25 C 0.828125 -11.945312 1.828125 -14.257812 3.828125 -16.1875 C 5.828125 -18.113281 8.222656 -19.078125 11.015625 -19.078125 C 13.960938 -19.078125 16.359375 -18.226562 18.203125 -16.53125 C 20.046875 -14.832031 20.96875 -12.40625 20.96875 -9.25 C 20.96875 -8.8125 20.953125 -8.523438 20.921875 -8.390625 Z M 7.65625 -11.921875 L 14.703125 -11.921875 C 14.566406 -12.890625 14.191406 -13.628906 13.578125 -14.140625 C 12.960938 -14.660156 12.171875 -14.921875 11.203125 -14.921875 C 10.140625 -14.921875 9.296875 -14.644531 8.671875 -14.09375 C 8.046875 -13.539062 7.707031 -12.816406 7.65625 -11.921875 Z M 7.65625 -11.921875 "/></g></g></g><g fill="#d90429" fill-opacity="1"><g transform="translate(44.843327, 39.178039)"><g><path d="M 13.546875 0 L 9.21875 0 L -0.71875 -18.546875 L 6.65625 -18.546875 L 11.171875 -8.53125 L 15.609375 -18.546875 L 20.015625 -18.546875 L 24.46875 -8.53125 L 28.984375 -18.546875 L 36.359375 -18.546875 L 26.421875 0 L 22.078125 0 L 17.8125 -9.578125 Z M 13.546875 0 "/></g></g></g><g fill="#d90429" fill-opacity="1"><g transform="translate(77.071198, 39.178039)"><g><path d="M 10.234375 -19.078125 C 11.285156 -19.078125 12.328125 -18.957031 13.359375 -18.71875 C 14.398438 -18.476562 15.175781 -18.238281 15.6875 -18 L 16.4375 -17.640625 L 14.34375 -13.4375 C 12.894531 -14.207031 11.523438 -14.59375 10.234375 -14.59375 C 9.503906 -14.59375 8.988281 -14.515625 8.6875 -14.359375 C 8.382812 -14.203125 8.234375 -13.910156 8.234375 -13.484375 C 8.234375 -13.378906 8.242188 -13.28125 8.265625 -13.1875 C 8.296875 -13.09375 8.347656 -13.003906 8.421875 -12.921875 C 8.492188 -12.835938 8.554688 -12.765625 8.609375 -12.703125 C 8.671875 -12.640625 8.773438 -12.570312 8.921875 -12.5 C 9.066406 -12.425781 9.179688 -12.367188 9.265625 -12.328125 C 9.347656 -12.296875 9.484375 -12.242188 9.671875 -12.171875 C 9.867188 -12.109375 10.015625 -12.054688 10.109375 -12.015625 C 10.210938 -11.984375 10.378906 -11.929688 10.609375 -11.859375 C 10.835938 -11.785156 11.007812 -11.734375 11.125 -11.703125 C 11.875 -11.492188 12.523438 -11.253906 13.078125 -10.984375 C 13.640625 -10.722656 14.222656 -10.363281 14.828125 -9.90625 C 15.441406 -9.445312 15.914062 -8.867188 16.25 -8.171875 C 16.59375 -7.472656 16.765625 -6.675781 16.765625 -5.78125 C 16.765625 -1.5625 13.835938 0.546875 7.984375 0.546875 C 6.660156 0.546875 5.398438 0.34375 4.203125 -0.0625 C 3.015625 -0.476562 2.15625 -0.890625 1.625 -1.296875 L 0.828125 -1.953125 L 3.4375 -6.328125 C 3.625 -6.160156 3.875 -5.960938 4.1875 -5.734375 C 4.5 -5.503906 5.066406 -5.1875 5.890625 -4.78125 C 6.710938 -4.382812 7.421875 -4.1875 8.015625 -4.1875 C 9.347656 -4.1875 10.015625 -4.632812 10.015625 -5.53125 C 10.015625 -5.9375 9.84375 -6.253906 9.5 -6.484375 C 9.164062 -6.710938 8.59375 -6.972656 7.78125 -7.265625 C 6.976562 -7.554688 6.347656 -7.820312 5.890625 -8.0625 C 4.734375 -8.664062 3.816406 -9.34375 3.140625 -10.09375 C 2.460938 -10.851562 2.125 -11.863281 2.125 -13.125 C 2.125 -15 2.851562 -16.457031 4.3125 -17.5 C 5.769531 -18.550781 7.742188 -19.078125 10.234375 -19.078125 Z M 10.234375 -19.078125 "/></g></g></g><g fill="#d90429" fill-opacity="1"><g transform="translate(91.450562, 39.178039)"><g><path d="M 16.234375 -18.546875 L 23.59375 -18.546875 L 9.03125 9.390625 L 1.65625 9.390625 L 8.0625 -2.890625 L -0.71875 -18.546875 L 6.65625 -18.546875 L 11.8125 -9.03125 Z M 16.234375 -18.546875 "/></g></g></g><g fill="#d90429" fill-opacity="1"><g transform="translate(110.924338, 39.178039)"><g><path d="M 3.25 -18.546875 L 3.25 -25.4375 L 9.65625 -25.4375 L 9.65625 -18.546875 L 13.546875 -18.546875 L 13.546875 -13.65625 L 9.65625 -13.65625 L 9.65625 -7.765625 C 9.65625 -6.054688 10.132812 -5.203125 11.09375 -5.203125 C 11.332031 -5.203125 11.582031 -5.25 11.84375 -5.34375 C 12.113281 -5.445312 12.320312 -5.546875 12.46875 -5.640625 L 12.6875 -5.78125 L 14.28125 -0.609375 C 12.90625 0.160156 11.335938 0.546875 9.578125 0.546875 C 8.367188 0.546875 7.332031 0.335938 6.46875 -0.078125 C 5.601562 -0.503906 4.945312 -1.070312 4.5 -1.78125 C 4.050781 -2.5 3.726562 -3.25 3.53125 -4.03125 C 3.34375 -4.8125 3.25 -5.648438 3.25 -6.546875 L 3.25 -13.65625 L 0.578125 -13.65625 L 0.578125 -18.546875 Z M 3.25 -18.546875 "/></g></g></g><g fill="#d90429" fill-opacity="1"><g transform="translate(121.799033, 39.178039)"><g><path d="M 20.921875 -8.390625 L 7.484375 -8.390625 C 7.484375 -7.085938 7.90625 -6.117188 8.75 -5.484375 C 9.59375 -4.859375 10.507812 -4.546875 11.5 -4.546875 C 12.53125 -4.546875 13.347656 -4.6875 13.953125 -4.96875 C 14.554688 -5.25 15.242188 -5.796875 16.015625 -6.609375 L 20.640625 -4.296875 C 18.710938 -1.066406 15.503906 0.546875 11.015625 0.546875 C 8.222656 0.546875 5.828125 -0.410156 3.828125 -2.328125 C 1.828125 -4.242188 0.828125 -6.550781 0.828125 -9.25 C 0.828125 -11.945312 1.828125 -14.257812 3.828125 -16.1875 C 5.828125 -18.113281 8.222656 -19.078125 11.015625 -19.078125 C 13.960938 -19.078125 16.359375 -18.226562 18.203125 -16.53125 C 20.046875 -14.832031 20.96875 -12.40625 20.96875 -9.25 C 20.96875 -8.8125 20.953125 -8.523438 20.921875 -8.390625 Z M 7.65625 -11.921875 L 14.703125 -11.921875 C 14.566406 -12.890625 14.191406 -13.628906 13.578125 -14.140625 C 12.960938 -14.660156 12.171875 -14.921875 11.203125 -14.921875 C 10.140625 -14.921875 9.296875 -14.644531 8.671875 -14.09375 C 8.046875 -13.539062 7.707031 -12.816406 7.65625 -11.921875 Z M 7.65625 -11.921875 "/></g></g></g><g fill="#d90429" fill-opacity="1"><g transform="translate(140.188891, 39.178039)"><g><path d="M 6.28125 -7.734375 C 7.4375 -7.734375 8.414062 -7.328125 9.21875 -6.515625 C 10.03125 -5.710938 10.4375 -4.734375 10.4375 -3.578125 C 10.4375 -2.441406 10.03125 -1.46875 9.21875 -0.65625 C 8.414062 0.144531 7.4375 0.546875 6.28125 0.546875 C 5.15625 0.546875 4.1875 0.144531 3.375 -0.65625 C 2.570312 -1.46875 2.171875 -2.441406 2.171875 -3.578125 C 2.171875 -4.734375 2.570312 -5.710938 3.375 -6.515625 C 4.1875 -7.328125 5.15625 -7.734375 6.28125 -7.734375 Z M 6.28125 -7.734375 "/></g></g></g><g fill="#d90429" fill-opacity="1"><g transform="translate(149.401587, 39.178039)"><g><path d="M 12.03125 -13.84375 C 10.832031 -13.84375 9.796875 -13.394531 8.921875 -12.5 C 8.054688 -11.613281 7.625 -10.539062 7.625 -9.28125 C 7.625 -8.007812 8.054688 -6.925781 8.921875 -6.03125 C 9.796875 -5.144531 10.832031 -4.703125 12.03125 -4.703125 C 12.613281 -4.703125 13.160156 -4.769531 13.671875 -4.90625 C 14.191406 -5.050781 14.570312 -5.195312 14.8125 -5.34375 L 15.140625 -5.5625 L 17.3125 -1.125 C 17.144531 -1 16.910156 -0.84375 16.609375 -0.65625 C 16.304688 -0.476562 15.617188 -0.234375 14.546875 0.078125 C 13.472656 0.390625 12.320312 0.546875 11.09375 0.546875 C 8.375 0.546875 5.984375 -0.410156 3.921875 -2.328125 C 1.859375 -4.242188 0.828125 -6.539062 0.828125 -9.21875 C 0.828125 -11.914062 1.859375 -14.234375 3.921875 -16.171875 C 5.984375 -18.109375 8.375 -19.078125 11.09375 -19.078125 C 12.320312 -19.078125 13.453125 -18.929688 14.484375 -18.640625 C 15.523438 -18.359375 16.265625 -18.070312 16.703125 -17.78125 L 17.3125 -17.34375 L 15.140625 -12.96875 C 14.347656 -13.550781 13.3125 -13.84375 12.03125 -13.84375 Z M 12.03125 -13.84375 "/></g></g></g><g fill="#d90429" fill-opacity="1"><g transform="translate(163.744823, 39.178039)"><g><path d="M 3.921875 -2.203125 C 1.859375 -4.035156 0.828125 -6.382812 0.828125 -9.25 C 0.828125 -12.113281 1.898438 -14.46875 4.046875 -16.3125 C 6.191406 -18.15625 8.84375 -19.078125 12 -19.078125 C 15.101562 -19.078125 17.722656 -18.148438 19.859375 -16.296875 C 21.992188 -14.441406 23.0625 -12.09375 23.0625 -9.25 C 23.0625 -6.40625 22.019531 -4.0625 19.9375 -2.21875 C 17.851562 -0.375 15.207031 0.546875 12 0.546875 C 8.675781 0.546875 5.984375 -0.367188 3.921875 -2.203125 Z M 8.875 -12.390625 C 8.039062 -11.578125 7.625 -10.53125 7.625 -9.25 C 7.625 -7.976562 8.019531 -6.9375 8.8125 -6.125 C 9.613281 -5.320312 10.664062 -4.921875 11.96875 -4.921875 C 13.21875 -4.921875 14.242188 -5.328125 15.046875 -6.140625 C 15.859375 -6.960938 16.265625 -8 16.265625 -9.25 C 16.265625 -10.53125 15.847656 -11.578125 15.015625 -12.390625 C 14.179688 -13.210938 13.164062 -13.625 11.96875 -13.625 C 10.738281 -13.625 9.707031 -13.210938 8.875 -12.390625 Z M 8.875 -12.390625 "/></g></g></g><g fill="#d90429" fill-opacity="1"><g transform="translate(184.230252, 39.178039)"><g><path d="M 2.171875 0 L 2.171875 -18.546875 L 8.5625 -18.546875 L 8.5625 -16.59375 L 8.640625 -16.59375 C 10.296875 -18.25 12.066406 -19.078125 13.953125 -19.078125 C 15.296875 -19.078125 16.554688 -18.800781 17.734375 -18.25 C 18.921875 -17.695312 19.816406 -16.84375 20.421875 -15.6875 C 22.296875 -17.945312 24.34375 -19.078125 26.5625 -19.078125 C 28.539062 -19.078125 30.238281 -18.519531 31.65625 -17.40625 C 33.082031 -16.300781 33.796875 -14.570312 33.796875 -12.21875 L 33.796875 0 L 27.390625 0 L 27.390625 -10.484375 C 27.390625 -11.472656 27.117188 -12.296875 26.578125 -12.953125 C 26.035156 -13.617188 25.222656 -13.953125 24.140625 -13.953125 C 23.203125 -13.953125 22.484375 -13.664062 21.984375 -13.09375 C 21.492188 -12.53125 21.222656 -11.851562 21.171875 -11.0625 L 21.171875 0 L 14.78125 0 L 14.78125 -10.484375 C 14.78125 -11.472656 14.507812 -12.296875 13.96875 -12.953125 C 13.425781 -13.617188 12.613281 -13.953125 11.53125 -13.953125 C 10.539062 -13.953125 9.796875 -13.644531 9.296875 -13.03125 C 8.804688 -12.414062 8.5625 -11.6875 8.5625 -10.84375 L 8.5625 0 Z M 2.171875 0 "/></g></g></g></svg>